<?xml version="1.0" standalone="no"?>
<!DOCTYPE svg PUBLIC "-//W3C//DTD SVG 20010904//EN"
 "http://www.w3.org/TR/2001/REC-SVG-20010904/DTD/svg10.dtd">
<svg version="1.0" xmlns="http://www.w3.org/2000/svg"
 width="23.000000pt" height="26.000000pt" viewBox="0 0 23.000000 26.000000"
 preserveAspectRatio="xMidYMid meet">

<g transform="translate(0.000000,26.000000) scale(0.100000,-0.100000)"
fill="#000000" stroke="none">
<path d="M110 222 c-16 -13 -21 -24 -16 -40 15 -46 76 -35 76 14 0 34 -32 48
-60 26z"/>
<path d="M44 155 c-4 -9 -2 -21 4 -27 15 -15 44 -1 40 19 -4 23 -36 29 -44 8z"/>
<path d="M184 155 c-4 -9 -2 -21 4 -27 15 -15 44 -1 40 19 -4 23 -36 29 -44 8z"/>
<path d="M100 120 c-13 -13 -20 -33 -20 -60 l0 -40 55 0 c55 0 55 0 55 31 0
17 -5 40 -11 52 -22 42 -48 48 -79 17z"/>
<path d="M36 93 c-3 -3 -6 -21 -6 -40 0 -23 5 -33 15 -33 10 0 15 10 15 34 0
34 -11 52 -24 39z"/>
<path d="M210 60 c0 -22 5 -40 10 -40 6 0 10 18 10 40 0 22 -4 40 -10 40 -5 0
-10 -18 -10 -40z"/>
</g>
</svg>
