<?xml version="1.0" standalone="no"?>
<!DOCTYPE svg PUBLIC "-//W3C//DTD SVG 20010904//EN"
 "http://www.w3.org/TR/2001/REC-SVG-20010904/DTD/svg10.dtd">
<svg version="1.0" xmlns="http://www.w3.org/2000/svg"
 width="42.000000pt" height="40.000000pt" viewBox="0 0 42.000000 40.000000"
 preserveAspectRatio="xMidYMid meet">

<g transform="translate(0.000000,40.000000) scale(0.100000,-0.100000)"
fill="#000000" stroke="none">
<path d="M50 273 c0 -54 4 -114 10 -132 22 -77 124 -135 195 -111 l36 12 -30
34 c-17 18 -33 51 -36 71 -14 82 -18 99 -35 133 -17 33 -67 69 -117 85 -23 6
-23 5 -23 -92z"/>
<path d="M285 249 c-24 -20 -27 -27 -22 -66 3 -33 14 -54 38 -79 31 -32 34
-33 51 -17 19 17 38 72 38 109 0 27 -28 60 -56 68 -13 4 -31 -1 -49 -15z"/>
</g>
</svg>
